<?xml version="1.0" encoding="UTF-8" standalone="no"?>
<!-- Created with Inkscape (http://www.inkscape.org/) -->

<svg
   version="1.1"
   id="svg1"
   width="512"
   height="512"
   viewBox="0 0 512 512"
   xmlns="http://www.w3.org/2000/svg"
   xmlns:svg="http://www.w3.org/2000/svg">
  <defs
     id="defs1" />
  <g
     id="g1">
    <path
       style="fill:#2c3e50;fill-opacity:1;stroke:#2c3e50;stroke-opacity:1"
       d="m 159.8893,157.07257 -58,32 C 87.606104,164.70511 61.783731,151.05875 34.889299,145.2344 c -8.281273,-1.79342 -22.728956,-5.41522 -29.2457133,2.00547 -6.56865171,7.47979 -3.2443431,21.92013 -2.2196002,30.8327 3.3708367,29.31738 12.2421865,60.29153 34.4653135,81 v 1 c -22.578337,21.88965 -31.8351041,53.44464 -34.7622572,84 -1.2005657,12.53223 -4.2512012,32.18469 13.7779092,32.3262 20.956585,0.16449 44.038326,-8.11981 60.978611,-20.11752 6.244072,-4.42227 11.602256,-9.64349 16.875076,-15.15363 2.78804,-2.91351 5.959602,-6.54748 10.375692,-6.33502 8.45237,0.40668 18.46968,9.21106 25.75497,13.17914 16.93697,9.22498 34.63069,18.10046 53,24.10083 -7.45668,14.85355 -10.71239,31.4071 -10.93854,47.99976 -0.0955,7.00576 0.032,15.47882 7.28382,19.00445 8.41601,4.09165 21.81044,0.66571 30.65472,-0.67666 20.12056,-3.05387 40.33441,-8.86033 58,-19.15256 9.48627,-5.52683 17.29315,-14.08393 27,-19.02393 7.26956,-3.69964 16.08762,-3.09729 24,-4.00244 12.80139,-1.46445 25.57086,-3.7048 38,-7.12836 49.87589,-13.73806 94.19272,-42.94409 126.86246,-83.02026 7.25259,-8.89679 13.87402,-18.28473 19.98282,-28 3.06186,-4.86951 6.74377,-10.19458 7.639,-16 1.51639,-9.83374 -7.13287,-20.35846 -12.27713,-28 -15.18451,-22.55579 -33.78793,-43.12341 -55.20715,-59.90552 -24.13306,-18.90838 -51.64017,-33.14413 -81,-41.96374 -8.53198,-2.56299 -17.24484,-4.6287 -25.99994,-6.26917 -5.53021,-1.03622 -11.53854,-1.35797 -16.78137,-3.50967 -5.89017,-2.41736 -10.42282,-7.38703 -15.24152,-11.38184 -5.95514,-4.93698 -12.30468,-9.39129 -18.97717,-13.305885 -22.70184,-13.31866 -48.5621,-21.52242 -74,-27.76513 -19.15218,-4.70013 -38.44949,-8.432339 -57.99998,-11.030453 -7.05094,-0.937011 -17.11699,-3.146362 -21.86203,3.89679 -5.03708,7.476623 1.20159,18.902833 3.86267,26.234613 8.18534,22.552345 15.8033,45.120455 22.99934,68.000005 m -2,-76.999995 c 20.27615,4.80169 40.86882,7.66424 61,13.23934 22.99242,6.36749 44.02527,15.520425 65,26.760655 v 1 l -57,11.19049 -48,15.80951 -12.47031,-40 -8.52969,-27.999995 M 23.889299,355.07257 c 0.288237,-21.93726 4.848789,-45.00461 16.244835,-63.99969 3.854187,-6.4242 8.492092,-12.1814 13.875824,-17.38364 3.799518,-3.67142 9.370415,-7.83988 9.654632,-13.61667 0.262791,-5.34131 -4.364757,-9.37683 -7.863925,-12.73865 C 49.995264,241.75638 44.731481,235.9808 40.532838,229.07226 29.025819,210.13837 24.182432,187.03604 23.889299,165.07257 c 19.14859,2.50101 38.034424,10.30017 51.727211,24.2244 6.504036,6.61395 14.169029,26.08535 25.30947,24.55035 9.00575,-1.24084 18.32288,-11.07056 25.96332,-15.72244 16.91196,-10.29682 34.81787,-19.11679 53,-26.93885 28.94427,-12.45202 59.53661,-23.62789 91,-27.36526 54.11969,-6.42859 111.42722,10.02725 155,42.4472 19.52188,14.52509 36.85504,32.04609 51.06497,51.8046 4.62506,6.43103 12.89725,15.41895 11.22669,24 -1.4827,7.61597 -7.91782,14.92068 -12.41031,21 -12.06974,16.33301 -26.03263,31.24542 -41.88135,43.95886 -42.68976,34.24454 -99.93225,54.27735 -155,49.59137 -33.11914,-2.81824 -65.60902,-14.12366 -96,-27.06427 -18.85767,-8.02972 -37.49118,-16.90811 -55,-27.60126 -7.94411,-4.85168 -17.59984,-14.95562 -26.96314,-16.28768 C 89.505609,304.04486 82.017297,323.80328 75.345773,330.57288 61.2866,344.83871 42.954172,350.92184 23.889299,355.07257 M 287.07881,165.9183 c -10.50082,3.1435 -15.1575,20.04273 -18.38082,29.15427 -11.18792,31.62549 -13.15192,66.07391 -7.6063,99 1.74896,10.38406 3.49658,22.51636 8.82755,31.75677 2.55417,4.42731 7.21768,8.21949 12.60702,6.43836 4.79596,-1.58505 6.70182,-6.54538 6.49729,-11.23108 -0.43524,-9.9715 -5.13532,-20.09869 -6.87375,-29.96405 -4.6947,-26.64166 -3.42822,-53.94882 4.00555,-80 3.11972,-10.93292 9.58069,-21.04086 12.18888,-31.98883 1.71786,-7.21079 -2.78638,-15.70367 -11.26542,-13.16544 m 42.03196,0.29984 c -11.30991,4.22955 -16.20044,23.57272 -19.45984,33.85443 -11.36298,35.84436 -11.81357,75.75586 -2.05377,112 3.16668,11.75986 7.07086,24.59372 13.95773,34.76697 3.08237,4.55328 8.12973,8.8211 13.97787,6.67941 5.19165,-1.90128 6.79981,-7.46139 5.72592,-12.46268 -2.48248,-11.56131 -9.59887,-22.43206 -12.83261,-33.9837 -8.55621,-30.56476 -8.50668,-63.39554 -0.16192,-94 3.18182,-11.66934 10.22012,-22.36316 12.9006,-33.99026 1.689,-7.32642 -3.71603,-15.9823 -12.05398,-12.86417 m 55.78018,41.13742 c -26.49466,1.31338 -24.24384,42.29373 1.99728,40.89975 26.31034,-1.39768 24.45816,-42.21118 -1.99728,-40.89975 M 264.8893,397.07257 c -22.14694,12.93359 -45.54242,19.58301 -71,22 1.05841,-9.9342 0.45306,-28.49158 9.36478,-35.14539 4.99647,-3.73059 12.47097,-0.19421 17.63559,1.42704 14.46133,4.53958 29.75363,6.69021 43.99963,11.71835 z"
       id="path1" />
  </g>
</svg>
