<?xml version="1.0" encoding="UTF-8" standalone="no"?>
<!-- Created with Inkscape (http://www.inkscape.org/) -->

<svg
   version="1.1"
   id="svg1"
   width="512"
   height="512"
   viewBox="0 0 512 512"
   sodipodi:docname="visitante.png"
   xmlns:inkscape="http://www.inkscape.org/namespaces/inkscape"
   xmlns:sodipodi="http://sodipodi.sourceforge.net/DTD/sodipodi-0.dtd"
   xmlns="http://www.w3.org/2000/svg"
   xmlns:svg="http://www.w3.org/2000/svg">
  <defs
     id="defs1" />
  <sodipodi:namedview
     id="namedview1"
     pagecolor="#ffffff"
     bordercolor="#000000"
     borderopacity="0.25"
     inkscape:showpageshadow="2"
     inkscape:pageopacity="0.0"
     inkscape:pagecheckerboard="0"
     inkscape:deskcolor="#d1d1d1" />
  <g
     inkscape:groupmode="layer"
     inkscape:label="Image"
     id="g1">
    <path
       style="fill:#2c3e50;fill-opacity:1;stroke:#2c3e50;stroke-opacity:1"
       d="m 16.889299,427.37024 v -146 h 96.000001 24 c 3.32675,0 8.03467,0.19342 10.66667,-2.33331 4.18057,-4.01337 2.15494,-11.77729 -3.66667,-12.66669 -5.69604,-0.87024 -12.22797,0 -18,0 H 89.889299 l 20.000001,-22 27,-29 87,-94.00001 c 1.0341,4.91202 4.43059,8.57932 8,12 14.0817,13.49497 37.9183,13.49497 52,0 3.56946,-3.42072 6.96588,-7.08795 8,-12 l 87,94.00001 27,29 20,22 h -196 -46 c -5.26671,0 -14,-0.71509 -14,7 0,9.2059 11.96669,8 18,8 h 59 252 v 146 h -63 c -5.87247,0 -18.92572,0.22284 -15.66666,10 2.48798,7.4639 13.53461,5 19.66666,5 h 55 c 6.06778,0 16.13498,2.29117 18.66666,-5 1.19857,-3.45184 0.33334,-8.37924 0.33334,-12 v -27 -91 -28 c 0,-4.13629 0.70129,-8.94171 -3,-11.83331 -3.50674,-2.73969 -11.7229,-1.16669 -16,-1.16669 h -33 c -3.89105,0 -10.47281,1.26361 -14,-0.5 -4.14697,-2.07349 -7.2579,-7.06671 -10.16666,-10.5 -4.36328,-5.15012 -9.31131,-9.99097 -13.83334,-15 -15.33026,-16.9812 -31.67007,-33.01917 -47,-50 -18.49094,-20.48224 -37.50909,-40.51779 -56,-61.00001 -7.33279,-8.1225 -15.87186,-15.41711 -22.66666,-24 -4.01416,-5.0705 -3.63708,-11.274136 -6.5,-16.999997 -5.26211,-10.524231 -17.08535,-18.857849 -28.83334,-20 -15.46381,-1.503418 -31.65981,5.652954 -38.83333,20 -2.54602,5.092041 -2.12059,11.49411 -5.5,15.999997 -6.79466,9.05954 -16.07791,16.59399 -23.66667,25 l -29,32.00001 c -23.51598,26.04846 -47.72062,51.66501 -72.000001,77 -4.947762,5.16287 -10.20401,10.53589 -14.833336,16 -3.155441,3.72446 -6.679809,9.25659 -11.166664,11.5 -3.527164,1.76358 -10.108982,0.5 -14,0.5 h -34 c -5.113739,0 -13.3532558,-1.79388 -16.6666667,3 -3.79988135,5.49768 -1.3333333,18.48633 -1.3333333,25 v 64 61 c 0,5.98294 -2.31302305,17.68253 2.9999999,21.83334 4.379703,3.42163 16.5674901,1.16666 22.0000001,1.16666 h 58 226.000001 68 c 6.26187,0 21,2.84024 21,-7 0,-9.91592 -13.52551,-8 -20,-8 h -69 H 16.889299 M 252.8893,83.536889 c 5.86957,-0.978271 13.02914,-0.285278 18,3.166688 15.52304,10.779876 12.05865,36.833343 -7,41.333313 -10.05139,2.37326 -20.75706,-1.67878 -26,-10.66666 -7.46614,-12.7991 -0.10489,-31.315854 15,-33.833341 M 60.889299,326.70355 c -8.042824,1.22879 -6,10.80951 -6,16.66669 0,5.30521 -1.413479,12.96918 0.333332,18 1.530014,4.40643 6.480644,7.45874 9.333336,11 3.05891,3.79727 7.605282,10.54181 13.333332,9.66669 4.180336,-0.63867 7.219032,-4.88571 10,-7.66669 3.937363,-3.93738 9.780083,-8.56665 11.666664,-14 1.564497,-4.50574 0.333336,-11.25531 0.333336,-16 0,-5.92795 1.612251,-14.01984 -5,-17 -4.729111,-2.13144 -9.451141,1.0603 -10,6 -0.88002,7.92017 2.869827,18.78491 -3,25 -1.132568,1.19919 -3.135078,4 -5,4 -2.069519,0 -3.851402,-3.64429 -5,-5 -5.817703,-6.86679 -1.723602,-16.64539 -3,-25 -0.555367,-3.63516 -4.318146,-6.22919 -8,-5.66669 m 61.000001,0 c -4.15138,0.51892 -6.56103,3.71595 -7,7.66669 -0.72041,6.4837 0,13.47058 0,20 0,6.52942 -0.72041,13.51633 0,20 0.44592,4.01331 3.66237,7.80121 8,7.5 3.82553,-0.26566 6.58273,-2.74457 7,-6.5 0.75642,-6.80786 0,-14.1441 0,-21 0,-6.8559 0.75644,-14.19214 0,-21 -0.4308,-3.87723 -3.92474,-7.17609 -8,-6.66669 m 54,34.66669 v 6 h -14 c -3.58325,0 -8.59814,-0.89923 -12,0.33331 -5.30386,1.92169 -5.42896,10.36603 -1,13.16669 2.95085,1.86597 6.6841,1.5 10,1.5 h 20 c 3.05214,0 6.52617,-0.0519 9,-2.16669 5.1767,-4.42523 3,-15.77511 3,-21.83331 0,-2.38275 0.0318,-4.77997 -1,-7 -3.03952,-6.53955 -14.93657,-4 -21,-4 -5.28548,0 -8.83685,0.19946 -9,-6 h 19 c 2.89867,0 6.52328,0.54419 9,-1.33331 5.14919,-3.90345 2.25354,-11.17585 -3,-13 -3.69768,-1.28394 -8.13295,-0.66669 -12,-0.66669 -6.56491,0 -14.62296,-1.26093 -21,0.33331 -9.19997,2.29999 -6,16.3111 -6,23.66669 0,3.25806 -0.84361,7.5025 2,9.83331 2.1458,1.75885 5.41869,1.16669 8,1.16669 h 20 m 36,-34.5 c -4.20195,0.29181 -6.5634,3.57059 -7,7.5 -0.72041,6.4837 0,13.47058 0,20 0,6.52942 -0.72041,13.51633 0,20 0.4726,4.25336 3.37924,7.82086 8,7.5 3.82556,-0.26566 6.58273,-2.74457 7,-6.5 1.08061,-9.72556 0,-20.20584 0,-30 0,-4.13867 1.08696,-10.07996 -0.33333,-14 -1.07135,-2.95694 -4.61365,-4.71204 -7.66667,-4.5 m 30,-0.16669 c -5.06262,1.26569 -8.5238,6.70453 -5.5,11.66669 3.27501,5.37439 11.1788,0.21967 14,5 1.19907,2.03174 0.5,5.73157 0.5,8 v 21 c 0,4.9549 1.53021,10.65512 8,9.66669 6.00977,-0.91819 6,-5.86908 6,-10.66669 v -20 c 0,-2.26843 -0.69907,-5.96823 0.5,-8 2.82117,-4.78033 10.72501,0.37433 14,-5 3.0238,-4.96216 -0.43735,-10.401 -5.5,-11.66669 -5.50031,-1.37506 -12.34271,-0.33331 -18,-0.33331 -4.44571,0 -9.67056,-0.74902 -14,0.33331 m 69,0 c -2.37857,0.46253 -4.86346,0.81305 -7,2 -10.51837,5.84357 -9,17.35633 -9,27.66669 0,6.48437 -0.70587,13.42584 3.33334,19 6.11051,8.4325 21.69278,8.53333 30.66666,5.66669 11.61948,-3.71179 11,-15.84235 11,-25.66669 0,-4.88339 1.09991,-11.30933 -0.33334,-16 -3.68775,-12.06891 -17.51056,-14.83591 -28.66666,-12.66669 m 51,0 c -6.38016,1.59503 -6,6.21131 -6,11.66669 v 29 c 0,3.90219 -1.26492,9.99658 2,12.83331 3.06689,2.66468 8.23965,2.38288 10.83334,-0.83331 3.50287,-4.34354 -1.01422,-11.4574 1.66666,-16 2.07001,-3.50751 11.97983,-2.87128 14.33334,0 4.67084,5.69843 -2.96026,14.55591 6.16666,18 1.30649,0.49301 2.62741,0.67645 4,0.33331 7.62097,-1.90521 7.09503,-14.28375 5.66666,-20.33331 -0.61396,-2.60031 -2.82492,-5.27716 -2.33332,-8 1.10239,-6.10559 3.78202,-9.47015 1.33332,-16 -4.21946,-11.25183 -16.70978,-11 -26.66666,-11 -3.53461,0 -7.55176,-0.52875 -11,0.33331 m 69,20.66669 v -6 h 13 c 3.86121,0 9.33881,0.99316 13,-0.33331 4.65039,-1.68494 5.61484,-9.35926 2,-12.5 -4.30637,-3.74161 -12.75049,-2.16669 -18,-2.16669 -6.03903,0 -15.67255,-1.82001 -21,1.5 -6.19086,3.85806 -4,14.25116 -4,20.5 0,2.48602 -0.49451,5.61578 0.33334,8 2.68817,7.74188 15.19937,5 21.66666,5 2.45547,0 8.66666,-0.93228 8.66666,3 0,2.97974 -3.58765,2.97113 -5.66666,3 -5.90131,0.082 -14.41571,-1.63297 -20,0.33331 -6.0513,2.13074 -6.07626,10.00324 -1,13.16669 2.97198,1.85211 6.66833,1.5 10,1.5 h 20 c 3.03299,0 6.55209,-0.0398 9,-2.16669 2.17303,-1.88806 2,-4.20269 2,-6.83331 v -17 c 0,-2.75323 0.18585,-5.72687 -2.16666,-7.66669 -2.34329,-1.93219 -6.02261,-1.33331 -8.83334,-1.33331 h -19 m -119,-5.83331 12.5,1 0.5,12.83331 -2,11.83331 -12.5,-1 -0.5,-12.83331 2,-11.83331 m 74,0.83331 c -0.55423,5.26529 -10.45349,7.6535 -14.83334,4.5 -4.16135,-2.99615 1.22784,-5.46381 3.83334,-5.5 1.66434,-0.0231 3.33563,-0.0231 5,0 2.18793,0.0304 3.92075,0.39813 6,1 z"
       id="path1" />
  </g>
</svg>
