<?xml version="1.0" encoding="UTF-8" standalone="no"?>
<!-- Created with Inkscape (http://www.inkscape.org/) -->

<svg
   version="1.1"
   id="svg1"
   width="512"
   height="512"
   viewBox="0 0 512 512"
   xmlns="http://www.w3.org/2000/svg"
   xmlns:svg="http://www.w3.org/2000/svg">
  <defs
     id="defs1" />
  <g
     id="g1">
    <path
       style="fill:#2c3e50;fill-opacity:1;stroke:#2c3e50;stroke-opacity:1"
       d="m 106.8893,366.62977 c 0,8.80872 -2.93726,24.60623 2.96899,31.89462 4.09036,5.04758 12.26124,4.09235 18.03124,4.10324 l 47.99977,0.002 v 23 h -70 -59.000001 c -8.953667,0 -19.957516,-1.67908 -28.614265,0.88669 -10.2022196,3.02383 -7.80413,19.93002 -7.220937,28.08182 0.241484,3.37542 0.829047,6.97805 3.338545,9.46795 3.462153,3.43512 8.95464,3.44 13.499665,3.52762 10.326002,0.19907 20.669226,0.0359 30.996992,0.0359 H 166.8893 c 13.22119,0 32.57809,3.39252 43.26917,-6.19885 7.16641,-6.42923 7.66343,-15.82645 7.72009,-24.80115 0.0716,-11.33255 0.0107,-22.66724 0.0107,-34 h 19 v 63 c 0,9.39584 -2.03583,21.69775 1.16556,30.65472 3.54403,9.91562 19.51694,7.77247 27.80658,7.18049 3.69394,-0.2638 7.6412,-0.97794 10.12362,-4.00077 5.21265,-6.34744 2.90424,-19.1914 2.90424,-26.83444 v -70 h 19 c 0,11.33276 -0.0608,22.66745 0.0107,34 0.0567,8.97473 0.55365,18.37189 7.72009,24.80115 10.69116,9.59137 30.04806,6.19885 43.26925,6.19885 h 108 c 10.32764,0 20.67108,0.16315 30.99701,-0.0359 4.54498,-0.0876 10.03751,-0.0925 13.49963,-3.52762 2.75278,-2.73132 3.20536,-6.77804 3.3935,-10.4555 0.41751,-8.16056 2.61676,-23.44721 -7.20206,-26.87558 -8.45145,-2.95098 -19.84436,-1.1054 -28.68808,-1.1054 h -59 -70 v -23 l 47.99979,-0.002 c 5.77002,-0.0109 13.94085,0.94434 18.03122,-4.10324 5.90628,-7.28856 2.96899,-23.08604 2.96899,-31.89476 8.75345,0 27.90076,3.55621 33.56143,-4.88666 3.935,-5.86905 2.4379,-15.41742 2.43851,-22.11334 l 6e-5,-50 V 97.629766 l -10e-4,-64.999969 C 444.87502,21.111486 444.91905,10.458563 430.87029,9.7396296 400.70317,8.1958369 370.09795,9.6297663 339.8893,9.6297663 h -177 l -65.000001,3.05e-5 C 90.856515,9.6301935 78.916612,7.5974482 73.858293,13.795324 68.919618,19.846593 70.889474,31.371587 70.889314,38.629766 l -1.5e-5,60 V 289.62977 l 7.6e-5,50 c 6.26e-4,6.69586 -1.496483,16.24432 2.438492,22.11334 5.66066,8.44287 24.807999,4.88666 33.561433,4.88666 m 324,-343.000004 V 352.62977 H 84.889299 V 23.629766 H 430.8893 m -324,71 c -4.41227,0.162781 -9.770127,0.111084 -12.634179,4.105347 -4.002876,5.582467 -2.365425,15.425877 -2.365784,21.894657 -5.19e-4,9.33105 -0.08173,18.66644 0.01666,27.99701 0.04635,4.39535 -0.258309,9.97931 2.878898,13.49966 2.999111,3.36539 7.965455,3.32749 12.104405,3.50333 v 45 c -4.13894,0.17584 -9.105302,0.13794 -12.104402,3.50333 -3.137184,3.52032 -2.83255,9.10434 -2.878898,13.49966 -0.0984,9.33057 -0.01718,18.66596 -0.01666,27.99701 3.59e-4,6.46875 -1.637077,16.31219 2.365784,21.89465 2.864052,3.99424 8.221886,3.94257 12.634176,4.10535 0,10.98804 -0.25369,22.01062 0.0566,32.99451 0.13694,4.84732 0.45437,10.63159 4.87767,13.63461 5.14996,3.49637 13.17367,2.36798 19.06576,2.37048 l 42.99997,4e-4 h 164 l 47,-4e-4 c 6.0574,-0.003 14.75153,1.26169 19.78012,-2.90384 5.22211,-4.3258 4.20572,-13.06381 4.21744,-19.09585 l 0.002,-47.99991 v -132 c 0,-22.61066 0.82669,-45.398472 -0.087,-67.990269 -0.0916,-2.264496 -0.22622,-4.579162 -0.85989,-6.768402 -2.86268,-9.890167 -14.96671,-8.237518 -23.05311,-8.240936 l -61,-3.97e-4 h -158 c -12.99953,0 -26.00009,-0.04755 -38.99953,0.0055 -5.30311,0.02164 -12.35408,-0.617096 -16.43693,3.497864 -3.65987,3.68866 -3.47952,9.683472 -3.54134,14.49823 -0.13264,10.329918 -0.0222,20.667626 -0.0222,30.998406 m 288,-35 V 316.62977 h -274 c 0,-8.75235 -2.69504,-22.98389 1.43571,-30.91132 2.06845,-3.96963 7.1326,-4.17443 10.25443,-6.95575 4.42393,-3.94134 4.22734,-10.70501 4.28957,-16.13375 0.10313,-8.99768 0.0253,-18.00098 0.0196,-26.99918 -0.003,-5.44327 0.57779,-11.55917 -1.22913,-16.7865 -2.36024,-6.82809 -9.47078,-6.36169 -12.93716,-11.61487 -4.41252,-6.68701 -1.9618,-20.88919 -1.79587,-28.57629 0.0729,-3.37479 -0.0231,-7.49017 2.25868,-10.24582 3.87655,-4.68167 10.1888,-4.37802 12.47435,-10.99002 2.00672,-5.80533 1.22852,-12.74164 1.22963,-18.7865 0.002,-10.21933 0.77652,-20.80481 -0.27453,-30.97766 -0.43978,-4.25638 -1.77703,-8.216436 -5.36699,-10.814397 -2.96347,-2.144562 -7.10793,-2.799805 -8.92161,-6.290924 -4.12611,-7.942322 -1.43668,-22.153199 -1.43668,-30.917023 h 274 M 256.3058,78.017004 c -7.62957,2.533966 -12.30346,15.213317 -15.99252,21.612762 -11.53271,20.005924 -23.02486,40.037844 -34.63301,60.000004 -3.54214,6.09131 -14.6089,19.52451 -9.61403,26.83444 4.8579,7.10947 21.4661,4.16556 28.82306,4.16556 h 62 c 9.07526,0 20.98853,1.97128 29.63092,-1.16556 11.19067,-4.06177 1.66495,-17.5744 -1.94083,-23.83444 C 301.70778,143.28321 288.73387,120.99503 275.89476,98.629797 272.47454,92.67188 265.62703,74.921209 256.3058,78.017004 m 94.59058,-1.30011 c -28.51028,5.519165 -20.53162,49.872106 7.9903,44.803776 3.15533,-0.5607 6.16897,-1.8327 8.81085,-3.64139 19.74505,-13.51791 6.96844,-45.763827 -16.80115,-41.162386 m 2.28125,14.82846 c 9.65872,-2.680236 13.97174,12.181646 4.33594,15.108276 -9.78891,2.97315 -14.18048,-12.376464 -4.33594,-15.108276 m -94.28833,5.084412 46,80.000004 h -93 l 47,-80.000004 m -153,56.000004 v -45 l 14.69937,2.83652 2.24062,9.20065 -0.0342,21.90283 -2.73944,8.75781 -14.16635,2.30219 m 148,-3 c -1.08139,3.00763 -2.29684,5.99716 -3.20981,9.06146 -1.68075,5.64133 0.57564,15.70932 8.34934,10.19385 5.95837,-4.22751 15.4136,-21.99768 9.92791,-28.81677 -2.40255,-2.98657 -6.56726,-3.15 -10.06744,-3.43854 1.17953,-2.67035 2.43066,-5.33267 3.38065,-8.09659 1.7499,-5.09122 0.9461,-16.84219 -7.42621,-11.63894 -5.94605,3.69537 -9.89806,14.25036 -11.659,20.69839 -0.77341,2.83194 -1.14429,6.11563 0.76788,8.5986 2.31505,3.00614 6.49244,3.15329 9.93668,3.43854 m -75.99251,53.19766 c -28.29283,6.83487 -18.28499,50.81693 9.98534,44.31647 28.62713,-6.58252 18.38202,-51.16934 -9.98534,-44.31647 m 2.40492,14.87973 c 9.65288,-3.9971 14.97875,11.11121 5.24611,14.63306 -9.28386,3.35947 -14.20669,-10.92261 -5.24611,-14.63306 m 50.09847,1.48813 c -6.79428,3.06381 -4.85191,10.26013 1.74019,11.77417 10.48793,2.40878 23.02803,0.67838 33.74869,0.65817 4.75509,-0.009 10.8424,0.68634 15.12268,-1.81961 7.4996,-4.39077 0.42569,-10.9364 -5.23337,-11.76593 -9.36579,-1.37286 -19.44023,-0.42172 -28.88904,-0.41104 -5.27284,0.006 -11.55426,-0.6611 -16.48915,1.56424 M 122.8893,268.62977 h -17 v -45 l 14.16633,2.30219 2.8206,12.7052 0.0131,29.99261 m 53.04276,-8.58252 c -27.79734,8.83215 -13.59305,51.68604 13.91464,43.08588 22.39418,-7.00141 19.67152,-41.46625 -3.95955,-44.00769 -3.32031,-0.35712 -6.76599,-0.0915 -9.95509,0.92181 m 6.11956,13.58255 c 10.13144,-1.27295 12.08063,14.55393 1.7571,15.59695 -9.94881,1.00516 -11.56409,-14.36477 -1.7571,-15.59695 m 46.79575,2.89447 c -6.41649,3.88699 -1.0358,10.27499 4.21222,11.44504 10.83215,2.4151 23.76777,0.73938 34.82812,0.64709 4.39399,-0.0367 10.04334,0.36621 13.776,-2.40851 6.54679,-4.86657 -0.52777,-10.52655 -5.87024,-11.23309 -10.36758,-1.37106 -21.45785,-0.36737 -31.90377,-0.34204 -4.72071,0.0115 -10.8209,-0.66574 -15.04233,1.89151 m 166.0419,90.1055 c -6.4e-4,5.6394 1.74118,15.58221 -2.30219,20.16351 -3.44689,3.90549 -11.07028,2.8256 -15.69891,2.83435 l -39.9989,0.002 h -163 c -12.33145,0 -24.66464,0.0599 -36.99594,-0.007 -4.19907,-0.0229 -10.59531,0.69077 -13.70186,-2.8291 -4.04335,-4.58169 -2.30154,-14.5245 -2.3022,-20.1639 h 274 m -191,36 -0.0167,32.99841 -3.48665,14.49826 -14.49825,3.48664 -30.9984,0.0167 H 24.889299 v -14 H 142.8893 c 9.662,0 19.33803,0.15015 28.99841,-0.0359 4.7022,-0.0905 10.13837,-0.17813 13.83603,-3.52762 7.46314,-6.76039 4.16556,-24.35469 4.16556,-33.43648 h 14 m 61,0 v 87 h -14 v -87 h 14 m 61,0 c 0,9.08173 -3.29755,26.67615 4.16556,33.43646 3.69766,3.34946 9.13382,3.43708 13.83603,3.52762 9.66037,0.18607 19.33642,0.0359 28.99841,0.0359 h 118 v 14 h -130 l -30.99841,-0.0167 -14.49823,-3.48664 -3.48664,-14.49826 -0.0167,-32.9984 z"
       id="path1" />
  </g>
</svg>
