<?xml version="1.0" encoding="UTF-8" standalone="no"?>
<!-- Created with Inkscape (http://www.inkscape.org/) -->

<svg
   version="1.1"
   id="svg1"
   width="512"
   height="512"
   viewBox="0 0 512 512"
   xmlns="http://www.w3.org/2000/svg"
   xmlns:svg="http://www.w3.org/2000/svg">
  <defs
     id="defs1" />
  <g
     id="g1">
    <path
       style="fill:#2c3e50;fill-opacity:1;stroke:#2c3e50;stroke-opacity:1"
       d="M 30.892795,16.154768 C 20.136001,18.651747 11.060534,27.452345 8.1843619,38.114363 c -2.471424,9.161591 -1.295061,19.595245 -1.295063,28.996338 -4e-6,17.001007 -0.04203,33.999689 -0.13246,50.999999 -0.466263,87.65677 0.13246,175.33997 0.13246,263 l 1.4e-5,65 c 2.43e-4,11.65579 -1.225856,24.03711 6.2208211,33.88812 10.164716,13.44666 24.507505,13.11118 39.779165,13.11185 l 75.000001,3e-5 h 244 75 c 12.42477,0 26.92099,1.99225 38.99936,-1.30072 10.56988,-2.88171 19.2774,-12.09503 21.84177,-22.69962 2.23645,-9.24856 1.15887,-19.55575 1.15887,-28.99966 v -50 c 0,-87.64478 -1.0574,-175.36298 0.0601,-263 0.28039,-21.98962 -0.0592,-44.006499 -0.0601,-65.999999 -5.2e-4,-12.12854 0.96692,-24.600891 -7.35358,-34.504822 C 491.38185,14.519728 477.28801,15.111342 462.8893,15.110732 l -77,-3.1e-5 h -240 -75.000001 c -12.839836,0 -27.426407,-1.87384 -39.996504,1.044067 M 497.8893,114.1107 H 17.889299 l 0.0023,-56.999999 c 0.0172,-9.69632 -0.06696,-19.958923 8.434889,-26.430756 8.776396,-6.680847 22.218603,-4.569244 32.562811,-4.569244 h 73.000001 259 67 c 9.76636,3.1e-5 22.15604,-1.856873 30.67886,3.934265 8.95627,6.085663 9.2883,16.272064 9.31702,26.065735 0.0567,19.333008 0.004,38.666901 0.004,57.999999 M 69.891985,46.26396 c -3.192955,0.753754 -6.184636,2.208588 -8.804867,4.176392 -20.431332,15.344055 -5.478932,49.155759 19.791355,42.906189 3.461426,-0.856049 6.744362,-2.448853 9.524986,-4.685822 C 109.68842,73.146254 94.145357,40.538557 69.891985,46.26396 M 140.89638,46.2068 c -3.47397,0.74472 -6.78271,2.250366 -9.59711,4.423462 -19.88296,15.352417 -5.05195,48.010928 19.58739,42.857391 3.55347,-0.743225 6.88054,-2.310791 9.73193,-4.556946 19.65383,-15.482055 5.01313,-48.026519 -19.72221,-42.723907 m 70.99704,9.1e-5 c -3.49838,0.748475 -6.83113,2.263947 -9.68492,4.423371 -20.14333,15.242187 -4.83954,47.985658 19.67811,42.857391 3.17008,-0.663086 6.17334,-1.977936 8.80591,-3.866119 20.6854,-14.836365 6.33827,-48.792633 -18.7991,-43.414643 m 225.99588,17.90381 c -3.53598,0.130005 -7.79971,-0.01791 -10.77341,2.242157 -4.17663,3.174286 -0.98571,7.197205 2.9961,8.148285 2.52777,0.60376 5.19745,0.548218 7.77731,0.609558 0.0877,2.625916 0.0847,5.314758 0.71198,7.88385 1.11618,4.571869 6.04891,8.675781 9.34661,3.212372 1.95551,-3.239746 1.81961,-7.451202 1.94141,-11.096222 2.57986,-0.06134 5.24948,-0.0058 7.77731,-0.609558 3.98188,-0.95108 7.17264,-4.97406 2.9961,-8.148285 -2.97373,-2.260071 -7.23746,-2.112152 -10.77341,-2.242157 -0.0982,-2.323395 -0.1185,-4.687408 -0.65753,-6.963684 -0.98541,-4.161285 -5.3458,-8.768128 -8.94913,-3.931091 -2.2626,3.037262 -2.21515,7.293457 -2.39334,10.894775 M 72.975671,57.546309 C 88.33616,54.888136 93.441141,78.688765 77.794176,81.95146 61.851362,85.275862 56.963312,60.317274 72.975671,57.546309 m 70.988139,-0.04047 c 15.86049,-2.61966 19.87482,22.185821 3.83307,24.596954 -15.90581,2.390686 -19.65091,-21.984345 -3.83307,-24.596954 m 70.97813,0 c 15.72701,-2.586335 19.74584,22.211181 3.8477,24.596954 -16.02841,2.405334 -19.87333,-21.961517 -3.8477,-24.596954 m 58.97809,8.471893 c -8.65741,5.283996 5.15256,8.950928 8.98312,9.073059 26.93985,0.85883 54.0319,0.05991 80.98615,0.05991 6.62582,0 13.33615,0.294312 19.95035,-0.143616 2.74667,-0.181854 6.13141,-0.467071 8.16055,-2.583069 2.67044,-2.784729 0.23731,-5.999267 -2.69867,-7.120849 -5.79593,-2.214112 -13.32419,-1.1521 -19.41223,-1.152435 l -68,-3.1e-5 c -7.89023,0 -20.9668,-2.406891 -27.96927,1.867035 M 497.8893,125.1107 v 252 66 c -6e-5,9.48691 1.72253,21.36731 -3.93427,29.63132 -6.95669,10.16299 -19.16055,9.36477 -30.06573,9.36834 l -73,3.4e-4 h -275 l -65.000001,-6.4e-4 c -10.239719,-0.006 -21.527212,0.63241 -28.430752,-8.43655 -6.201436,-8.14664 -4.569031,-19.95221 -4.569235,-29.56281 l -1.3e-5,-65 v -254 H 497.8893 M 56.209291,159.89592 c -2.353477,1.31231 -1.961075,4.28378 -1.040886,6.36856 2.033833,4.60785 6.275925,8.32574 9.744366,11.84634 10.25124,10.40537 20.652706,20.66547 30.975452,30.99988 4.677327,4.68262 11.287297,9.74481 13.887617,16 2.95572,7.11014 -4.51563,13.46622 -8.93556,18 -12.160675,12.47391 -24.736748,24.53986 -36.911659,36.99976 -3.30611,3.38348 -7.580479,7.14083 -9.123448,11.76324 -1.10881,3.32178 0.706891,6.35919 4.433198,5.56809 6.902164,-1.4654 12.919879,-9.61149 17.650928,-14.33329 12.010544,-11.98706 24.017291,-23.97879 35.995851,-35.9978 4.76954,-4.78564 13.76995,-11.5022 13.73321,-19 -0.0212,-4.31799 -3.27272,-7.97418 -5.98347,-11 -5.61174,-6.26395 -11.8009,-12.0553 -17.74559,-18 -10.952432,-10.95248 -21.629182,-22.30743 -32.998872,-32.82779 -2.971512,-2.74954 -9.047027,-8.97101 -13.681137,-6.38699 m 278.731489,9.08181 c -3.043,1.87235 -3.06521,5.47773 0,7.34165 3.405,2.07053 8.12766,1.74444 11.9516,1.77826 28.3277,0.2504 56.66803,0.0131 84.99692,0.0131 6.96799,0 13.99323,0.24997 20.95367,-0.10965 2.89505,-0.14957 6.76792,-0.30249 8.8302,-2.68475 2.53351,-2.92658 -0.4624,-6.02158 -3.27166,-7.05674 -6.42667,-2.3681 -14.77832,-1.1488 -21.51221,-1.14886 h -72 c -8.32443,0 -22.58987,-2.66071 -29.94852,1.86703 m 1.51853,38.67948 c -6.77835,3.06396 -3.04618,8.80542 2.6271,9.89139 9.8035,1.87655 20.85175,0.5621 30.80289,0.5621 h 60 c 7.30328,0 14.67755,0.28436 21.97131,-0.13046 3.10807,-0.17676 6.92566,-0.44428 9.284,-2.75913 3.0672,-3.01062 0.52335,-6.63583 -2.78351,-7.89123 -6.39725,-2.42866 -14.75311,-1.2191 -21.4718,-1.21922 h -69 c -9.33005,0 -22.75171,-2.37625 -31.42999,1.54651 m -2.16309,40.68429 c -2.96686,2.32615 -1.66363,5.82688 1.3642,7.28824 4.7276,2.28174 11.1373,1.47614 16.22897,1.48014 l 81.99991,8.2e-4 c 6.89056,0 22.94901,2.82706 27.81818,-3.33856 2.39331,-3.03055 -0.38385,-5.87726 -3.33838,-6.78449 -6.56324,-2.01535 -14.69159,-0.87692 -21.4798,-0.87695 h -74 c -7.57321,0 -22.26755,-2.72867 -28.59308,2.2308 m -194.00001,46 c -7.24192,5.67801 6.12902,8.57306 9.61062,8.69785 15.95655,0.57202 32.01584,0.0713 47.98247,0.0713 h 189 l 55,-4e-4 c 5.48917,-0.002 15.90433,1.61783 19.81818,-3.33816 5.73559,-7.26276 -10.6482,-7.63062 -13.8212,-7.65174 -18.66403,-0.12409 -37.33252,-0.01 -55.99698,-0.01 h -185 l -46.99998,1.2e-4 c -5.65224,8.6e-4 -14.81803,-1.51321 -19.59311,2.23068 m -85.097287,46.62821 c -3.053417,2.01434 -2.262116,5.57873 0.632576,7.28198 3.487232,2.05185 8.162319,1.80127 12.059997,1.84232 20.661362,0.21753 41.335254,0.0167 61.997804,0.0167 h 236 71 c 6.37286,-6e-5 20.22913,2.41052 24.75049,-3.33856 2.07556,-2.63916 0.22748,-5.43247 -2.48313,-6.51258 -4.8728,-1.94171 -11.13302,-1.1463 -16.26745,-1.14846 l -71.99991,-4e-4 h -230 -61.000001 c -6.914063,0 -18.63673,-2.13458 -24.690376,1.85901 m 0,47 c -3.05341,2.01434 -2.262112,5.57876 0.632576,7.28198 3.487236,2.05185 8.162323,1.80127 12.059997,1.84232 20.661362,0.21753 41.335254,0.0167 61.997804,0.0167 h 236 71 c 6.37292,-9e-5 20.22913,2.41052 24.75049,-3.33856 2.07556,-2.63916 0.22748,-5.43247 -2.48313,-6.51258 -4.8728,-1.94168 -11.13299,-1.14627 -16.26745,-1.14846 l -71.99991,-4e-4 h -230 -61.000001 c -6.91407,0 -18.636715,-2.13458 -24.690376,1.85901 m 0,47 c -3.053414,2.01434 -2.262104,5.57876 0.632576,7.28198 3.487236,2.05185 8.162323,1.80127 12.059997,1.84232 20.661362,0.21753 41.335254,0.0167 61.997804,0.0167 h 236 71 c 6.37292,-9e-5 20.22913,2.41052 24.75049,-3.33856 2.07556,-2.63916 0.22745,-5.43247 -2.48313,-6.51258 -4.8728,-1.94168 -11.13299,-1.14627 -16.26745,-1.14846 l -71.99991,-4e-4 h -230 -61.000001 c -6.91407,0 -18.636715,-2.13458 -24.690376,1.85901 z"
       id="path1" />
  </g>
</svg>
